<svg width="24" height="24" viewBox="0 0 24 24" fill="none" xmlns="http://www.w3.org/2000/svg">
  <path fill-rule="evenodd" clip-rule="evenodd" d="M17 2C16.4477 2 16 2.44772 16 3C16 3.55228 16.4477 4 17 4H18.5858L14.2929 8.29289C13.9024 8.68342 13.9024 9.31658 14.2929 9.70711C14.6834 10.0976 15.3166 10.0976 15.7071 9.70711L20 5.41421V7C20 7.55228 20.4477 8 21 8C21.5523 8 22 7.55228 22 7V3C22 2.44772 21.5523 2 21 2H17ZM3 16C3.55228 16 4 16.4477 4 17V18.5858L8.29289 14.2929C8.68342 13.9024 9.31658 13.9024 9.70711 14.2929C10.0976 14.6834 10.0976 15.3166 9.70711 15.7071L5.41421 20H7C7.55228 20 8 20.4477 8 21C8 21.5523 7.55228 22 7 22H3C2.44772 22 2 21.5523 2 21V17C2 16.4477 2.44772 16 3 16ZM6 5C5.44728 5 5 5.44728 5 6V11C5 11.5523 4.55228 12 4 12C3.44772 12 3 11.5523 3 11V6C3 4.34272 4.34272 3 6 3H11C11.5523 3 12 3.44772 12 4C12 4.55228 11.5523 5 11 5H6ZM21 13C21 12.4477 20.5523 12 20 12C19.4477 12 19 12.4477 19 13V18C19 18.5527 18.5527 19 18 19H12C11.4477 19 11 19.4477 11 20C11 20.5523 11.4477 21 12 21H18C19.6573 21 21 19.6573 21 18V13Z" fill="currentColor"/>
</svg>
