<svg width="24" height="24" viewBox="0 0 24 24" fill="none" xmlns="http://www.w3.org/2000/svg">
<path fill-rule="evenodd" clip-rule="evenodd" d="M1.99609 5.99753C1.99609 5.44524 2.44381 4.99753 2.99609 4.99753H21.0036C21.5559 4.99753 22.0036 5.44524 22.0036 5.99753C22.0036 6.54981 21.5559 6.99753 21.0036 6.99753H2.99609C2.44381 6.99753 1.99609 6.54981 1.99609 5.99753ZM1.99609 12C1.99609 11.4477 2.44381 11 2.99609 11H17.0019C17.5542 11 18.0019 11.4477 18.0019 12C18.0019 12.5523 17.5542 13 17.0019 13H2.99609C2.44381 13 1.99609 12.5523 1.99609 12ZM2.99609 17.0025C2.44381 17.0025 1.99609 17.4502 1.99609 18.0025C1.99609 18.5548 2.44381 19.0025 2.99609 19.0025H13.0003C13.5525 19.0025 14.0003 18.5548 14.0003 18.0025C14.0003 17.4502 13.5525 17.0025 13.0003 17.0025H2.99609Z" fill="currentColor"/>
</svg>
